PathFileType	4	(X/Y/Z)	/Users/mathieubourgeois/Desktop/Analyse/Traitement/Sujet_08/Data/Transformed_Sujet_08_velo_80.trc
DataRate	CameraRate	NumFrames	NumMarkers	Units	OrigDataRate	OrigDataStartFrame	OrigNumFrames
120.000000	120.000000	4	35	mm	120.000000	704	1878
Frame#	Time	RFHD			RANE			STRN			LANI			LKNE			T10			RHUM			RWRB			C7			LFWT			LTOE			RTOE			LWRA			LBWT			RBWT			RFWT			LKNI			RKNE			LANE			LHEE			LHUM			LRAD			RRAD			RWRA			LWRB			LFHD			LBHD			RBHD			RSHO			LSHO			CLAV			LCAR			RCAR			RANI			RKNI			
		X1	Y1	Z1	X2	Y2	Z2	X3	Y3	Z3	X4	Y4	Z4	X5	Y5	Z5	X6	Y6	Z6	X7	Y7	Z7	X8	Y8	Z8	X9	Y9	Z9	X10	Y10	Z10	X11	Y11	Z11	X12	Y12	Z12	X13	Y13	Z13	X14	Y14	Z14	X15	Y15	Z15	X16	Y16	Z16	X17	Y17	Z17	X18	Y18	Z18	X19	Y19	Z19	X20	Y20	Z20	X21	Y21	Z21	X22	Y22	Z22	X23	Y23	Z23	X24	Y24	Z24	X25	Y25	Z25	X26	Y26	Z26	X27	Y27	Z27	X28	Y28	Z28	X29	Y29	Z29	X30	Y30	Z30	X31	Y31	Z31	X32	Y32	Z32	X33	Y33	Z33	X34	Y34	Z34	X35	Y35	Z35	

705	5.866666666666666	226.4546203613281	1510.987060546875	61.12188339233392	-84.5164260864258	300.6862182617188	169.3685302734375	-46.45026779174805	1157.266479492188	7.317560672759933	-241.1086730957031	578.8098754882812	-70.74147796630865	27.86071205139162	870.1851196289062	-168.2847900390626	-199.9828948974609	1353.770385742188	16.27647590637196	148.7193450927734	1076.842529296875	200.2220916748047	337.5927124023437	910.0440673828125	253.874282836914	16.6076545715332	1428.677612304688	6.422402858734046	-265.8665161132812	1099.923095703125	-98.59648895263682	-156.7357330322265	419.6045837402344	-122.4879684448243	100.7711181640625	219.5345611572266	141.246337890625	363.163818359375	938.6019287109375	-174.5848846435547	-401.9327697753906	1153.046142578125	-26.73131561279309	-389.8840026855469	1148.799560546875	105.3535537719725	-232.3838653564453	1086.513427734375	130.3231811523437	-0.1318753063678668	808.5173950195312	-60.24969863891607	-69.69000244140628	713.4044189453125	185.2220458984374	-280.5219421386719	591.3975219726562	-149.526596069336	-328.4609069824219	596.748779296875	-103.6406402587891	133.8534545898438	1074.077026367188	-184.6599884033203	185.2029113769532	1103.699829101562	-238.5361480712891	188.8819580078125	1101.412109375	246.1503295898437	362.4996643066406	928.819580078125	186.7415924072266	329.2265319824219	895.4686279296875	-226.8636016845703	227.4684448242188	1521.71240234375	-66.36479949951179	72.24154663085939	1530.199340820312	-77.65427398681649	60.72452545166015	1535.232421875	59.00034713745109	70.1318893432617	1361.778930664062	128.7656860351562	56.0342140197754	1362.63232421875	-137.1480712890626	63.60552978515625	1295.135620117188	0.254415094852376	427.8758239746094	915.7457885742188	-254.4252777099609	438.8277893066406	910.2005615234375	276.3900146484375	-56.16432189941408	317.8053894042969	91.16271209716795	-30.66124725341798	652.2864990234375	82.16809082031246	
706	5.875	226.9062652587891	1511.372802734375	60.14645004272455	-93.4982376098633	292.3143005371094	169.3452758789062	-45.72376251220703	1157.525268554688	6.630246162414474	-233.6387023925781	587.8731079101562	-70.17252349853523	32.2950134277344	881.2809448242188	-168.202865600586	-199.5849304199219	1353.847900390625	16.49368858337392	149.4196472167968	1077.22998046875	199.6974029541015	337.6325073242187	910.0241088867188	253.7685852050781	16.94229888916016	1429.006591796875	5.63017320632926	-265.5863647460938	1100.432006835938	-97.65882110595713	-147.0267944335937	429.9390258789062	-122.4710998535157	91.52503204345702	209.7416839599609	141.4544677734375	363.2381896972656	938.6018676757812	-174.5704193115234	-401.2848815917969	1153.174560546875	-25.70107841491711	-388.8229370117188	1148.498413085938	106.3362426757811	-231.3266143798828	1086.241577148438	130.9439392089843	15.82297801971436	821.79638671875	-59.38402938842778	-77.76814270019534	705.6383666992188	186.0948486328124	-273.0828247070312	600.0725708007812	-149.0679473876954	-321.015380859375	604.8101806640625	-103.2920761108399	133.9765319824219	1074.135498046875	-184.8586578369141	185.3416748046875	1103.648193359375	-238.8177185058594	189.5822448730468	1101.859252929688	245.6769714355468	362.7541198730469	928.710693359375	186.7210235595703	329.3207397460938	895.4381713867188	-226.839111328125	227.7765197753906	1522.061157226562	-67.37364959716804	72.56050872802736	1530.576538085938	-78.5082321166993	61.13086318969726	1535.679443359375	58.15319824218741	70.73108673095702	1362.105346679688	127.749641418457	56.11907196044923	1362.812377929688	-138.1719665527345	64.01079559326172	1295.512817382812	-0.6119503974915266	427.9816589355469	915.6778564453125	-254.3751983642578	438.9785461425781	910.15576171875	276.4400634765625	-64.61473083496095	309.4744262695312	91.28690338134763	-38.04085159301759	644.144775390625	83.14947509765621	
707	5.883333333333333	227.3367156982422	1511.720947265625	59.11864852905267	-103.0062561035156	284.6809387207031	169.0543212890625	-45.09749984741211	1157.718139648438	5.976828098297043	-225.7745361328125	596.0183715820312	-69.62933349609382	36.56724929809572	892.0794677734375	-167.9811706542969	-199.1651153564453	1353.939819335938	16.76846313476552	150.1021118164062	1077.603149414062	199.2468872070312	337.8304138183593	910.0474243164062	253.7686920166015	17.27628707885742	1429.316162109375	4.832303524017248	-265.2652893066406	1101.05517578125	-96.81483459472666	-136.4476318359375	439.4996643066406	-122.7209625244141	81.63272857666014	200.5893859863281	141.6527252197266	363.3124084472656	938.6036987304688	-174.5755920410156	-400.6578369140625	1153.330200195312	-24.71973609924328	-387.8395690917969	1148.250244140625	107.2646026611327	-230.2910614013672	1085.947265625	131.5418701171874	21.92467689514161	831.4098510742188	-59.41129684448247	-85.69159698486331	698.2685546875	186.569351196289	-265.1749877929688	607.843994140625	-148.5970153808594	-313.3248596191406	611.8243408203125	-102.8570861816407	134.0770874023438	1074.151733398438	-185.149887084961	185.4220123291016	1103.575927734375	-239.0920562744141	190.2423706054687	1102.259033203125	245.18212890625	362.961181640625	928.5941772460938	186.6935577392578	329.4075012207031	895.3759765625	-226.8173217773438	228.0607147216797	1522.369506835938	-68.4050369262696	72.83568572998048	1530.926391601562	-79.37709808349618	61.59170913696288	1536.070434570312	57.29409027099601	71.42474365234374	1362.43115234375	126.7108306884765	56.15828704833986	1362.917358398438	-139.1831207275391	64.39395904541016	1295.903564453125	-1.541741132736277	428.0658569335938	915.6049194335938	-254.3419647216797	439.1643676757812	910.1983642578125	276.4287109375	-73.63770294189455	301.8694458007812	91.26976013183591	-45.41121673583985	636.5263061523438	83.7848739624023	
708	5.891666666666667	227.7664794921875	1512.0478515625	58.0621604919433	-113.0905151367188	277.8845520019531	168.4908599853515	-44.53482055664062	1157.887451171875	5.443681716918869	-217.8494262695312	602.5918579101562	-68.90660858154304	40.59595489501955	902.6011352539062	-167.7192993164063	-198.7458801269531	1354.036987304688	17.04828071594228	150.6977081298828	1077.953979492188	198.8551940917968	337.9950866699218	910.0598754882812	253.7605590820312	17.63114356994629	1429.615234375	4.025748252868566	-264.8523559570312	1101.661987304688	-96.06472015380869	-125.3915710449219	448.0528869628906	-122.4667282104493	71.19822692871092	192.0199584960938	141.925048828125	363.343505859375	938.58056640625	-174.5876007080078	-400.0382080078125	1153.503295898438	-23.87176322937024	-386.9514465332031	1148.04638671875	108.1276321411132	-229.3331909179688	1085.696044921875	132.1622924804687	29.34797859191895	841.1256103515625	-59.55150604248051	-93.46192932128909	691.63671875	187.0711822509765	-256.9259643554688	614.6215209960938	-148.1716003417969	-304.153564453125	617.3116455078125	-102.5182266235352	134.118881225586	1074.10888671875	-185.3413543701172	185.1009368896485	1103.457885742188	-239.7523193359375	190.8694610595703	1102.623168945312	244.7851409912109	363.2134399414062	928.49853515625	186.6805877685547	329.4666442871094	895.3312377929688	-226.7997436523438	228.3162994384766	1522.695678710938	-69.43724822998054	73.08867645263673	1531.26953125	-80.2183380126954	62.02895736694335	1536.43310546875	56.47354507446281	72.03084564208983	1362.643920898438	125.7100677490234	56.18021774291994	1362.989501953125	-140.1542053222657	64.75551605224609	1296.253784179688	-2.405716180801463	428.1430664062501	915.5076293945312	-254.3170471191406	439.2960205078124	910.1576538085938	276.4580078125	-83.0333938598633	295.0878601074219	90.97300720214841	-52.55048751831055	629.6656494140625	84.48469543457027	
